<?xml version="1.0" encoding="utf-8"?>
<!-- Generator: Adobe Illustrator 16.0.3, SVG Export Plug-In . SVG Version: 6.00 Build 0)  -->
<!DOCTYPE svg PUBLIC "-//W3C//DTD SVG 1.1//EN" "http://www.w3.org/Graphics/SVG/1.1/DTD/svg11.dtd">
<svg version="1.1" xmlns="http://www.w3.org/2000/svg" xmlns:xlink="http://www.w3.org/1999/xlink" x="0px" y="0px" width="600px"
	 height="410px" viewBox="0 0 600 410" enable-background="new 0 0 600 410" xml:space="preserve">
<g id="Layer_2">
</g>
<g id="Layer_1">
	<path fill="#FFFFFF" stroke="#000000" stroke-width="3" stroke-miterlimit="10" d="M257,358.666"/>
	<g>
		<path fill-rule="evenodd" clip-rule="evenodd" d="M257,138.973"/>
	</g>
	<circle fill="none" stroke="#000000" stroke-width="3" stroke-miterlimit="10" cx="155" cy="359" r="5.333"/>
	<circle fill="none" stroke="#000000" stroke-width="3" stroke-miterlimit="10" cx="160" cy="17" r="5.333"/>
	<circle fill="none" stroke="#000000" stroke-width="3" stroke-miterlimit="10" cx="211" cy="33" r="5.333"/>
	<circle fill="none" stroke="#000000" stroke-width="3" stroke-miterlimit="10" cx="257" cy="133" r="5.333"/>
	<circle fill="none" stroke="#000000" stroke-width="3" stroke-miterlimit="10" cx="257" cy="364" r="5.333"/>
	<path fill-rule="evenodd" clip-rule="evenodd" d="M257,358.666V139.334c-1.54,0-2.916-0.663-3.89-1.706
		c-4.506,1.481-7.946,5.252-11.518,8.623l-15.501-15.666c-1.787-1.875-3.64-2.604-6.227-2.578
		c-14.891,0.147-29.781,0.152-44.672,0.116c-1.115-0.002-3.076-0.527-3.199-1.113c-0.613-2.91-1.567-6.121-0.903-8.863
		c3.384-13.974,7.699-27.738,14.588-40.386c7.354-13.499,15.428-26.602,23.248-39.846c-0.583-0.246-1.104-0.603-1.559-1.029
		c-21.668,24.877-38.688,52.563-49.476,83.988c-0.465,1.353-0.418,3.222,0.145,4.524c1.928,4.451,4.304,8.707,6.279,13.14
		c1.023,2.294,2.385,2.7,4.783,2.437c16.624-1.825,33.264-3.512,49.914-5.084c1.161-0.109,2.928,0.739,3.59,1.706
		c3.782,5.515,7.365,11.17,10.883,16.859c0.601,0.971,0.559,2.338,0.814,3.522c-6.954-2.875-12.892-6.161-18.964-9.181
		c-1.368-0.682-3.331-0.926-4.799-0.538c-30.245,7.999-60.458,16.122-90.681,24.209c-1.082,0.289-2.189,0.479-3.638,0.788
		c0.261-2.711,0.481-4.945,0.688-7.18c3.309-35.675,11.184-70.292,24.354-103.634c5.256-13.308,10.913-26.456,16.39-39.676
		c-0.278-0.138-0.543-0.292-0.792-0.474c-6.411,10.521-12.375,21.197-18.2,31.948c-18.857,34.793-29.844,72.281-37.719,110.817
		c-0.163,0.796-0.197,1.83,0.172,2.493c4.353,7.786,8.793,15.522,13.324,23.47c8.599-5.05,16.824-9.773,24.939-14.681
		c5.371-3.248,10.725-6.292,17.051-7.481c4.86-0.915,9.568-2.62,14.375-3.85c3.334-0.851,6.696-1.652,10.09-2.197
		c10.318-1.655,20.4,0.044,30.448,2.294c5.956,1.334,11.959,2.458,18.007,3.691c-0.73,2.752-1.517,5.117-1.955,7.545
		c-0.376,2.086-1.365,3.143-3.437,3.646c-3.238,0.786-6.468,1.694-9.591,2.846c-11.436,4.218-22.822,8.57-34.244,12.828
		c-1.198,0.447-2.49,0.757-3.764,0.875c-7.621,0.704-15.246,1.366-22.875,1.981c-14.875,1.202-29.449-0.259-43.814-4.458
		c-6.705-1.958-13.646-3.109-20.866-4.714c-1.753,5.076-2.934,9.968-5.081,14.389c-4.113,8.47-3.038,16.368-0.08,25.044
		c8.721,25.585,18.199,50.749,32.01,74.139c10.753,18.209,23.273,35.163,35.772,52.15c0.432-0.394,0.919-0.727,1.463-0.962
		c-27.389-45.941-49.533-93.878-55.549-148.047c0.595-0.081,1.222-0.233,1.851-0.241c22.654-0.286,45.309-0.73,67.963-0.755
		c10.674-0.013,21.348,0.859,32.025,1.14c1.667,0.044,3.613-0.563,4.998-1.506c6.245-4.244,12.33-8.725,18.487-13.1
		c0.724-0.515,1.532-0.906,2.3-1.354c0.324,0.179,0.646,0.359,0.971,0.539c-0.709,2.486-1.057,5.155-2.195,7.427l4.734,13.915
		c1.615,2.532,3.034,4.757,4.655,7.297c-10.509,3.098-15.49,11.072-18.856,20.421c-0.982,2.73-1.705,5.58-2.282,8.428
		c-4.233,20.907-1.991,41.479,3.64,61.783c3.924,14.149,9.846,27.414,19.037,39.025c4.523,5.716,9.684,10.709,16.355,13.954
		c0.238,0.115,0.476,0.208,0.713,0.313C252.059,360.713,254.278,358.666,257,358.666z"/>
	<circle fill="none" stroke="#000000" stroke-width="3" stroke-miterlimit="10" cx="359.015" cy="359" r="5.333"/>
	<circle fill="none" stroke="#000000" stroke-width="3" stroke-miterlimit="10" cx="354.015" cy="17" r="5.333"/>
	<circle fill="none" stroke="#000000" stroke-width="3" stroke-miterlimit="10" cx="303.015" cy="33" r="5.333"/>
	<path fill-rule="evenodd" clip-rule="evenodd" d="M257,358.666V139.334c2,0,2.924-0.663,3.897-1.706
		c4.506,1.481,7.95,5.252,11.521,8.623l15.503-15.666c1.787-1.875,3.641-2.604,6.228-2.578c14.891,0.147,29.782,0.152,44.673,0.116
		c1.115-0.002,3.076-0.527,3.199-1.113c0.613-2.91,1.567-6.121,0.903-8.863c-3.384-13.974-7.699-27.738-14.588-40.386
		c-7.354-13.499-15.428-26.602-23.248-39.846c0.583-0.246,1.104-0.603,1.559-1.029c21.668,24.877,38.688,52.563,49.476,83.988
		c0.465,1.353,0.418,3.222-0.145,4.524c-1.928,4.451-4.304,8.707-6.279,13.14c-1.023,2.294-2.385,2.7-4.783,2.437
		c-16.624-1.825-33.264-3.512-49.914-5.084c-1.161-0.109-2.928,0.739-3.59,1.706c-3.782,5.515-7.365,11.17-10.883,16.859
		c-0.601,0.971-0.559,2.338-0.814,3.522c6.954-2.875,12.892-6.161,18.964-9.181c1.368-0.682,3.331-0.926,4.799-0.538
		c30.245,7.999,60.458,16.122,90.681,24.209c1.082,0.289,2.189,0.479,3.638,0.788c-0.261-2.711-0.481-4.945-0.688-7.18
		c-3.309-35.675-11.184-70.292-24.354-103.634c-5.256-13.308-10.912-26.456-16.391-39.676c0.279-0.138,0.544-0.292,0.792-0.474
		c6.411,10.521,12.374,21.197,18.2,31.948c18.857,34.793,29.844,72.281,37.719,110.817c0.163,0.796,0.197,1.83-0.172,2.493
		c-4.353,7.786-8.793,15.522-13.324,23.47c-8.599-5.05-16.824-9.773-24.939-14.681c-5.371-3.248-10.725-6.292-17.051-7.481
		c-4.86-0.915-9.568-2.62-14.375-3.85c-3.334-0.851-6.696-1.652-10.09-2.197c-10.318-1.655-20.4,0.044-30.448,2.294
		c-5.956,1.334-11.959,2.458-18.007,3.691c0.73,2.752,1.517,5.117,1.955,7.545c0.376,2.086,1.365,3.143,3.437,3.646
		c3.238,0.786,6.468,1.694,9.591,2.846c11.436,4.218,22.822,8.57,34.244,12.828c1.198,0.447,2.49,0.757,3.764,0.875
		c7.621,0.704,15.246,1.366,22.875,1.981c14.875,1.202,29.449-0.259,43.814-4.458c6.705-1.958,13.646-3.109,20.866-4.714
		c1.753,5.076,2.934,9.968,5.081,14.389c4.113,8.47,3.038,16.368,0.08,25.044c-8.721,25.585-18.199,50.749-32.01,74.139
		c-10.753,18.209-23.273,35.163-35.772,52.15c-0.433-0.394-0.919-0.727-1.463-0.962c27.389-45.941,49.533-93.878,55.549-148.047
		c-0.595-0.081-1.222-0.233-1.851-0.241c-22.654-0.286-45.309-0.73-67.963-0.755c-10.674-0.013-21.348,0.859-32.025,1.14
		c-1.667,0.044-3.613-0.563-4.998-1.506c-6.245-4.244-12.33-8.725-18.487-13.1c-0.724-0.515-1.532-0.906-2.3-1.354
		c-0.324,0.179-0.646,0.359-0.971,0.539c0.709,2.486,1.057,5.155,2.195,7.427l-4.734,13.915c-1.615,2.532-3.034,4.757-4.655,7.297
		c10.509,3.098,15.49,11.072,18.856,20.421c0.982,2.73,1.705,5.58,2.282,8.428c4.233,20.907,1.991,41.479-3.64,61.783
		c-3.924,14.149-9.846,27.414-19.037,39.025c-4.523,5.716-9.684,10.709-16.355,13.954c-0.238,0.115-0.483,0.208-0.721,0.313
		C261.949,360.713,260,358.666,257,358.666z"/>
</g>
<g id="Layer_3">
</g>
</svg>
